<?xml version="1.0" encoding="iso-8859-1"?>
<!-- Uploaded to: SVG Repo, www.svgrepo.com, Generator: SVG Repo Mixer Tools -->
<!DOCTYPE svg PUBLIC "-//W3C//DTD SVG 1.1//EN" "http://www.w3.org/Graphics/SVG/1.1/DTD/svg11.dtd">
<svg fill="#000000" version="1.1" id="Capa_1" xmlns="http://www.w3.org/2000/svg" xmlns:xlink="http://www.w3.org/1999/xlink" 
	 width="800px" height="800px" viewBox="0 0 433.998 433.998"
	 xml:space="preserve">
<g>
	<g>
		<g>
			<path d="M420.478,61.572c-26.469-7.68-57.151,0.551-91.205,24.468C312.799,97.607,265.148,141.598,217,141.598
				S121.203,97.611,104.726,86.04C70.669,62.125,39.981,53.892,13.519,61.571C3.774,64.4-1.994,75.188,0.636,85.669
				c2.63,10.481,12.664,16.683,22.405,13.857c25.296-7.342,58.922,15.29,80.479,34.111c-6.28,22.32-9.764,46.86-9.764,72.638
				c0,24.02,3.021,46.968,8.51,68.044c-26.775,9.858-61.261,29.018-86.565,65.905c-5.993,8.734-4.267,21.041,3.855,27.485
				c3.266,2.591,7.068,3.839,10.835,3.839c5.605,0,11.138-2.764,14.721-7.986c20.083-29.272,48.467-44.534,70.104-52.358
				c18.939,41.791,48.869,71.328,83.507,79.103V250.441c0-10.854,8.183-19.654,18.276-19.654c10.091,0,18.276,8.8,18.276,19.654
				v139.865c8.315-1.865,16.356-5.001,24.046-9.246c-5.354-11.625-8.343-24.556-8.343-38.171c0-48.489,37.869-88.293,85.588-91.405
				c2.396-14.475,3.677-29.612,3.677-45.208c0-25.755-3.493-50.262-9.769-72.561c21.404-18.567,55.364-41.479,80.481-34.188
				c9.739,2.826,19.779-3.376,22.406-13.857C435.994,75.188,430.227,64.4,420.478,61.572z"/>
			<path d="M154.417,85.448c16.574,14.662,38.798,22.737,62.581,22.737c23.783,0,46.005-8.075,62.583-22.737
				c7.09-6.272,12.687-13.393,16.681-21.029C275.65,32.561,247.734,13,217,13s-58.652,19.562-79.264,51.419
				C141.729,72.055,147.327,79.174,154.417,85.448z"/>
			<path d="M344.598,267.782c-42.311,0-76.607,34.299-76.607,76.607c0,42.312,34.298,76.609,76.607,76.609
				c42.312,0,76.609-34.299,76.609-76.609C421.207,302.081,386.908,267.782,344.598,267.782z M391.433,327.244l-54.387,54.388
				c-1.064,1.064-2.512,1.664-4.019,1.664c-1.508,0-2.952-0.599-4.021-1.665l-31.246-31.247c-2.219-2.22-2.219-5.816,0-8.038
				l12.057-12.055c2.22-2.218,5.816-2.219,8.038,0l15.172,15.171l38.312-38.312c2.22-2.22,5.818-2.22,8.038,0l12.055,12.056
				c1.065,1.064,1.665,2.512,1.665,4.019C393.098,324.732,392.498,326.179,391.433,327.244z"/>
		</g>
	</g>
</g>
</svg>